<svg width="0" height="0"><symbol xmlns="http://www.w3.org/2000/svg" id="exit" fill="none" viewBox="0 0 36 36"><path fill="var(--icon-color)" d="M8.43 16.636v-3.43a.18.18 0 0 0-.294-.146L2.07 17.858a.182.182 0 0 0 0 .285l6.067 4.802a.182.182 0 0 0 .293-.145v-3.431H24v-2.733H8.43Z"/><path fill="var(--icon-color)" fill-rule="evenodd" d="M10.412 2.092h21.195c.623 0 1.125.502 1.125 1.125v29.571c0 .623-.502 1.125-1.125 1.125H10.412a1.123 1.123 0 0 1-1.125-1.125v-6.75a.16.16 0 0 1 .16-.16h2.411a.16.16 0 0 1 .16.16v5.143H30V4.824H12.019v5.143c0 .088-.073.16-.161.16h-2.41a.161.161 0 0 1-.161-.16v-6.75c0-.623.502-1.125 1.125-1.125Z" clip-rule="evenodd"/></symbol></svg>