<svg width="0" height="0"><symbol xmlns="http://www.w3.org/2000/svg" id="star" fill="none" viewBox="0 0 24 22"><path fill="#FAAD14" d="m22.61 7.746-6.8-.989L12.768.594a.86.86 0 0 0-1.537 0l-3.04 6.163-6.802.989a.856.856 0 0 0-.474 1.462l4.92 4.798-1.162 6.774a.856.856 0 0 0 1.243.902L12 18.484l6.083 3.198a.856.856 0 0 0 1.243-.903l-1.163-6.773 4.921-4.798a.856.856 0 0 0 .25-.49.854.854 0 0 0-.724-.972Zm-6.517 5.585.967 5.633L12 16.307l-5.06 2.66.967-5.634-4.093-3.99 5.658-.823L12 3.396l2.53 5.124 5.657.822-4.093 3.989Z"/></symbol><symbol xmlns="http://www.w3.org/2000/svg" id="star_active" fill="none" viewBox="0 0 20 20"><path fill="#FAAD14" d="m19.284 7.276-5.951-.865-2.66-5.393a.753.753 0 0 0-1.345 0L6.668 6.41l-5.951.865a.749.749 0 0 0-.415 1.28l4.305 4.197L3.59 18.68a.75.75 0 0 0 1.088.79L10 16.672l5.323 2.798a.749.749 0 0 0 1.087-.79l-1.017-5.927L19.7 8.555a.749.749 0 0 0 .218-.429.747.747 0 0 0-.633-.85Z"/></symbol></svg>