<svg width="24" height="22" viewBox="0 0 24 22" fill="none" xmlns="http://www.w3.org/2000/svg">
<path d="M22.61 7.74577L15.8091 6.75738L12.7689 0.593983C12.6859 0.425233 12.5493 0.288626 12.3805 0.20559C11.9573 -0.00333828 11.443 0.170769 11.2314 0.593983L8.19122 6.75738L1.39033 7.74577C1.20283 7.77255 1.0314 7.86095 0.900147 7.99487C0.741473 8.15796 0.654037 8.37738 0.65705 8.6049C0.660064 8.83242 0.753281 9.04944 0.916219 9.20827L5.83675 14.0056L4.67425 20.7797C4.64699 20.9373 4.66443 21.0993 4.72459 21.2475C4.78475 21.3957 4.88522 21.524 5.01462 21.618C5.14401 21.712 5.29715 21.7678 5.45666 21.7792C5.61618 21.7906 5.77569 21.757 5.91711 21.6824L12.0001 18.4842L18.0832 21.6824C18.2493 21.7708 18.4421 21.8002 18.6269 21.7681C19.093 21.6877 19.4064 21.2458 19.326 20.7797L18.1635 14.0056L23.0841 9.20827C23.218 9.07702 23.3064 8.90559 23.3332 8.71809C23.4055 8.24934 23.0787 7.81541 22.61 7.74577ZM16.093 13.3306L17.06 18.9636L12.0001 16.3065L6.94033 18.9663L7.90729 13.3333L3.81443 9.3422L9.47157 8.51988L12.0001 3.39577L14.5287 8.51988L20.1859 9.3422L16.093 13.3306Z" fill="#FAAD14"/>
</svg>
