<svg width="20" height="20" viewBox="0 0 20 20" fill="none" xmlns="http://www.w3.org/2000/svg">
<path d="M19.2838 7.27553L13.333 6.41069L10.6728 1.01772C10.6002 0.870065 10.4806 0.750534 10.333 0.677877C9.96267 0.495065 9.51267 0.647409 9.32751 1.01772L6.66735 6.41069L0.716572 7.27553C0.55251 7.29897 0.40251 7.37632 0.287666 7.4935C0.148826 7.63621 0.0723193 7.82819 0.0749561 8.02727C0.0775929 8.22635 0.159158 8.41625 0.301728 8.55522L4.6072 12.7529L3.59001 18.6802C3.56616 18.8181 3.58141 18.9599 3.63405 19.0896C3.68669 19.2192 3.77461 19.3315 3.88783 19.4138C4.00105 19.496 4.13504 19.5449 4.27462 19.5548C4.4142 19.5648 4.55377 19.5354 4.67751 19.4701L10.0002 16.6716L15.3228 19.4701C15.4681 19.5474 15.6369 19.5732 15.7986 19.5451C16.2064 19.4748 16.4806 19.088 16.4103 18.6802L15.3931 12.7529L19.6986 8.55522C19.8158 8.44038 19.8931 8.29038 19.9166 8.12632C19.9799 7.71616 19.6939 7.33647 19.2838 7.27553Z" fill="#FAAD14"/>
</svg>
