<svg width="0" height="0"><symbol xmlns="http://www.w3.org/2000/svg" id="logo-big" fill="none" viewBox="0 0 426 107"><path fill="#10239E" d="M276.301 51.862h14.928v9.806h.221c.664-1.532 1.659-3.064 2.986-4.494 1.216-1.43 2.654-2.554 4.312-3.575 1.548-1.022 3.318-1.737 5.198-2.35 1.769-.51 3.759-.715 5.75-.817.995 0 2.101.205 3.428.511v13.483a93.518 93.518 0 0 0-2.654-.306c-1.106-.102-2.101-.204-2.986-.204-2.875 0-5.308.51-7.298 1.328-1.991.919-3.649 2.145-4.866 3.677-1.216 1.532-2.101 3.268-2.543 5.311-.553 2.043-.774 4.29-.774 6.64v24.038h-15.702V51.862Zm-21.146 20.736c-.774-3.677-2.101-6.435-3.981-8.376-1.879-1.838-4.754-2.758-8.514-2.86-2.544 0-4.645.409-6.303 1.226-1.659.817-2.986 1.736-3.981 2.86-.995 1.226-1.659 2.451-2.101 3.677-.442 1.328-.664 2.452-.664 3.473h25.544Zm-25.544 9.193c.222 4.699 1.438 8.172 3.871 10.215 2.322 2.145 5.75 3.166 10.173 3.166 3.096 0 5.861-.715 8.183-2.145 2.211-1.43 3.649-3.064 4.202-4.698h13.822c-2.211 6.333-5.639 10.93-10.173 13.585-4.644 2.758-10.173 4.086-16.587 4.086-4.534 0-8.625-.613-12.164-1.941-3.649-1.328-6.745-3.269-9.178-5.72-2.543-2.452-4.533-5.312-5.86-8.785-1.327-3.37-1.991-7.15-1.991-11.236 0-3.881.664-7.558 2.101-11.031 1.327-3.371 3.318-6.334 5.971-8.785a28.715 28.715 0 0 1 9.179-5.925c3.538-1.43 7.519-2.145 11.942-2.145 4.866 0 9.068.92 12.717 2.656 3.538 1.737 6.524 4.086 8.846 6.946 2.322 2.962 3.981 6.333 5.087 10.01.995 3.78 1.327 7.661 1.106 11.747h-41.247ZM194.62 104.91h-17.471l-19.472-53.047h16.476l12.053 36.057h.221l12.054-36.058h15.591L194.62 104.91Zm-52.67-32.312c-.774-3.677-2.101-6.435-3.981-8.376-1.88-1.838-4.755-2.758-8.514-2.86-2.544 0-4.645.409-6.303 1.226-1.659.817-2.986 1.736-3.981 2.86-.995 1.226-1.659 2.451-2.101 3.677-.442 1.328-.664 2.452-.664 3.473h25.544Zm-25.544 9.193c.222 4.699 1.438 8.172 3.871 10.215 2.322 2.145 5.75 3.166 10.173 3.166 3.096 0 5.861-.715 8.183-2.145 2.211-1.43 3.649-3.064 4.202-4.698h13.822c-2.211 6.333-5.639 10.93-10.173 13.585-4.644 2.758-10.173 4.086-16.587 4.086-4.534 0-8.625-.613-12.164-1.941-3.649-1.328-6.745-3.269-9.178-5.72-2.543-2.452-4.534-5.312-5.86-8.785-1.327-3.37-1.991-7.15-1.991-11.236 0-3.881.664-7.558 2.101-11.031 1.327-3.371 3.317-6.334 5.971-8.785a28.721 28.721 0 0 1 9.178-5.925c3.539-1.43 7.52-2.145 11.943-2.145 4.866 0 9.068.92 12.717 2.656 3.538 1.737 6.524 4.086 8.846 6.946 2.322 2.962 3.981 6.333 5.087 10.01.995 3.78 1.327 7.661 1.105 11.747h-41.246ZM79.617 29.322h15.481v75.588h-15.48V29.322ZM56.204 55.328a13.172 13.172 0 0 0-1.995-4.958c-1.109-1.518-2.328-2.834-3.88-4.048a18.179 18.179 0 0 0-5.321-2.63c-1.996-.608-3.991-.912-6.097-1.013-3.991 0-7.317.709-9.978 2.125-2.77 1.417-4.988 3.238-6.65 5.566-1.775 2.327-2.994 4.958-3.77 7.892-.776 3.036-1.109 6.072-1.109 9.209 0 3.035.333 6.07 1.109 8.904.776 2.833 1.995 5.464 3.77 7.69 1.662 2.328 3.88 4.15 6.65 5.566 2.661 1.416 5.987 2.024 9.978 2.024 5.32 0 9.422-1.417 12.416-4.453 2.993-2.934 4.877-6.88 5.542-11.738h16.85c-.443 4.554-1.662 8.602-3.436 12.244-1.885 3.643-4.323 6.78-7.316 9.31-3.105 2.63-6.652 4.553-10.643 5.869-4.101 1.416-8.536 2.023-13.413 2.023-6.098 0-11.53-.91-16.407-2.833-4.878-1.922-8.869-4.553-12.194-7.994-3.326-3.339-5.876-7.285-7.65-11.839C.888 77.691 0 72.732 0 67.471c0-5.364.887-10.322 2.66-14.977 1.774-4.654 4.324-8.702 7.65-12.142 3.325-3.34 7.316-6.071 12.194-8.095 4.877-1.923 10.31-2.833 16.407-2.935 4.323 0 8.425.607 12.305 1.72 3.88 1.215 7.316 2.834 10.42 5.06 3.104 2.226 5.654 4.857 7.65 8.095 1.995 3.238 3.214 6.982 3.768 11.13h-16.85ZM409.192 36.15h13.589v14.654h-13.589v28c0 9.53.589 9.501 1.769 10.617 1.179 1.117 3.539 1.675 7.077 1.675 1.18.14 2.212 0 3.391-.14 1.032 0 2.458-.79 3.195-1.535v15.351c-1.843.788-3.932 1.675-5.996 1.675-2.212.14-4.276.14-6.34.14-.138 0-2.473 0-3.456-.14-2.394-.34-5.955-1.605-8.166-2.861-1.229-.698-4.424-3.837-4.792-5.233-1.106-1.744-1.721-5.163-1.721-8.792V50.804H381.13V36.15h13.023V11.729h15.039v24.422Z"/><path fill="#10239E" fill-rule="evenodd" d="M316.257 50.804h10.321v54.108h16.513V50.804h12.237V36.15h-12.237v-1.256c0-2.93.59-5.714 1.769-6.97 1.18-1.256 3.244-1.954 6.193-1.954 2.654 0 5.16.14 7.666.42V11.728h-11.131c-7.004 0-12.533 3.38-15.85 6.629-4.276 4.186-5.16 9.001-5.16 15.28v2.513h-10.321v14.653Zm60.45 6.28h-16.071v47.828h16.071V57.084Z" clip-rule="evenodd"/><path fill="#40A9FF" d="M376.707 43.617c0 4.251-3.49 7.697-7.741 7.697-4.251 0-7.74-3.446-7.74-7.697 0-4.251 3.489-7.697 7.74-7.697s7.741 3.446 7.741 7.697Z"/></symbol><symbol xmlns="http://www.w3.org/2000/svg" id="logo-smal" fill="none" viewBox="0 0 110 105"><path fill="#10239E" d="M93.403 35.469h13.341v14.376H93.403v27.472c0 9.35.579 9.322 1.737 10.417 1.158 1.096 3.474 1.643 6.947 1.643 1.158.137 2.171 0 3.329-.137 1.013 0 2.413-.775 3.137-1.506v15.061c-1.809.773-3.861 1.643-5.887 1.643-2.171.137-4.197.137-6.224.137-.135 0-2.427 0-3.392-.137-2.35-.333-5.846-1.574-8.017-2.806-1.206-.685-4.342-3.766-4.704-5.135-1.085-1.711-1.69-5.066-1.69-8.626V49.845H65.857V35.47H78.64V11.508h14.763v23.96Z"/><path fill="#10239E" fill-rule="evenodd" d="M2.17 49.845h10.133v53.087h16.21V49.845h12.013V35.47H28.513v-1.233c0-2.875.58-5.605 1.737-6.838 1.158-1.232 3.184-1.917 6.079-1.917 2.605 0 5.066.137 7.526.411V11.508H32.928c-6.875 0-12.303 3.316-15.56 6.503-4.197 4.108-5.065 8.832-5.065 14.993v2.465H2.17v14.376Zm59.343 6.162H45.737v46.925h15.776V56.007Z" clip-rule="evenodd"/><path fill="#40A9FF" d="M61.513 42.794c0 4.17-3.428 7.552-7.599 7.552-4.17 0-7.598-3.381-7.598-7.552 0-4.17 3.428-7.552 7.598-7.552 4.171 0 7.6 3.381 7.6 7.552Z"/></symbol></svg>