<svg width="0" height="0"><symbol xmlns="http://www.w3.org/2000/svg" id="error_email" fill="none" viewBox="0 0 255 294"><path fill="#E4EBF7" fill-rule="evenodd" d="M.755 127.8v-2.11C.755 56.274 57.028 0 126.445 0h2.11c69.416 0 125.69 56.274 125.69 125.69v2.11c0 69.417-56.274 125.69-125.69 125.69h-2.11C57.028 253.49.755 197.217.755 127.8Z" clip-rule="evenodd"/><path fill="#fff" fill-rule="evenodd" d="M40.744 131.707a8.327 8.327 0 0 1-3.02 5.618 8.332 8.332 0 0 1-13.561-7.289 8.33 8.33 0 0 1 9.125-7.446 8.329 8.329 0 0 1 7.455 9.117" clip-rule="evenodd"/><path stroke="#fff" stroke-width="2" d="m49.42 147.483-12.734 10.861m1.259-23.155 10.553 5.983-10.553-5.983Z"/><path fill="#fff" fill-rule="evenodd" d="M40.865 160.415a5.7 5.7 0 0 1-2.053 3.88 5.716 5.716 0 0 1-4.201 1.273 5.697 5.697 0 0 1-3.862-2.086 5.707 5.707 0 1 1 10.116-3.067Zm17.833-16.216a5.743 5.743 0 0 1-4.058 4.952 5.744 5.744 0 0 1-7.172-3.864 5.751 5.751 0 0 1-.206-2.24 5.745 5.745 0 0 1 6.293-5.13 5.748 5.748 0 0 1 5.143 6.283v-.001Zm41.713-117.166 30.024-.013a4.614 4.614 0 0 0 4.266-2.853 4.622 4.622 0 0 0-1.003-5.033 4.623 4.623 0 0 0-3.267-1.352l-30.024.013a4.62 4.62 0 0 0 .004 9.238Zm11.484 18.462 30.023-.013a4.616 4.616 0 0 0 4.354-2.83 4.624 4.624 0 0 0-1.029-5.09 4.612 4.612 0 0 0-3.329-1.318l-30.024.013a4.62 4.62 0 0 0-3.263 7.887 4.62 4.62 0 0 0 3.267 1.351" clip-rule="evenodd"/><path fill="#fff" fill-rule="evenodd" d="M114.285 27.02v-.002l15.89-.007a4.617 4.617 0 0 0-4.616 4.621 4.618 4.618 0 0 0 4.621 4.617l-15.892.007v-.002a4.619 4.619 0 0 0-.004-9.234h.001Zm36.637 42.67h-3.979a4.79 4.79 0 0 1-4.774-4.775 4.791 4.791 0 0 1 4.774-4.774h3.979a4.79 4.79 0 0 1 4.775 4.774 4.79 4.79 0 0 1-4.775 4.775Z" clip-rule="evenodd"/><path fill="#FF603B" fill-rule="evenodd" d="M172.442 29.833c0-16.392 13.289-29.68 29.681-29.68 16.392 0 29.68 13.288 29.68 29.68 0 16.393-13.288 29.681-29.68 29.681s-29.68-13.288-29.68-29.68" clip-rule="evenodd"/><path fill="#fff" fill-rule="evenodd" d="m204.312 19.034-.676 15.035a1.514 1.514 0 0 1-3.026 0l-.675-15.035a2.19 2.19 0 1 1 4.377 0Zm-.264 19.378c.513.477.77 1.1.77 1.87s-.257 1.393-.77 1.907c-.55.476-1.21.733-1.943.733a2.546 2.546 0 0 1-1.87-.77c-.55-.514-.806-1.136-.806-1.87 0-.77.256-1.393.806-1.87.513-.513 1.137-.733 1.87-.733.77 0 1.43.22 1.943.733Z" clip-rule="evenodd"/><path fill="#FFB594" fill-rule="evenodd" d="M120.055 132.874c4.426-.598 3.612-1.204 4.079-4.778.675-5.18-3.108-16.935-8.262-25.118-1.088-10.72-12.598-11.24-12.598-11.24s4.312 4.895 4.196 16.199c1.398 5.243.804 14.45.804 14.45s5.255 11.369 11.78 10.487" clip-rule="evenodd"/><path fill="#fff" fill-rule="evenodd" d="M101.699 91.21s1.463-.584 3.211.581c8.08 1.398 10.368 6.706 11.3 11.368 1.864 1.282 1.864 2.33 1.864 3.496.365.777 1.515 3.03 1.515 3.03s-7.225 1.748-10.954 6.758c-1.399-6.41-6.936-25.235-6.936-25.235" clip-rule="evenodd"/><path fill="#FFB594" fill-rule="evenodd" d="m94.763 90.1 1.019-5.816-9.23-11.874-5.233 5.581-2.593 9.863s8.39 5.128 16.037 2.246" clip-rule="evenodd"/><path fill="#FFC6A0" fill-rule="evenodd" d="M83.686 77.815s-4.557-2.868-2.445-6.892c1.632-3.107 4.537 1.139 4.537 1.139s.524-3.662 3.139-3.662c.523-1.046 1.569-4.184 1.569-4.184s11.507 2.615 13.6 3.138c-.001 5.23-2.317 19.529-7.884 19.969-8.94.706-12.516-9.508-12.516-9.508Z" clip-rule="evenodd"/><path fill="#520038" fill-rule="evenodd" d="M103.726 71.843c2.616-2.094 3.489-9.776 3.489-9.776s-2.492-.492-6.676-2.062c-4.708-2.092-12.867-4.77-17.575.982-9.54 4.41-2.062 19.93-2.062 19.93l2.729-3.037s-3.956-3.303-2.092-6.276c2.183-3.48 3.943 1.08 3.943 1.08s.64-2.4 3.6-3.36c.356-.715 1.04-2.69 1.44-3.873a1.08 1.08 0 0 1 1.27-.706c2.41.56 8.723 2.03 11.417 2.675.524.126.876.62.825 1.156l-.308 3.267Z" clip-rule="evenodd"/><path fill="#552950" fill-rule="evenodd" d="M101.975 76.113c-.104.613-.585 1.044-1.076.96-.49-.082-.805-.646-.702-1.26.104-.613.585-1.044 1.076-.961.491.083.805.647.702 1.26Zm-6.96-1.44c-.104.613-.585 1.044-1.076.96-.49-.082-.805-.646-.702-1.26.104-.613.585-1.044 1.076-.96.491.082.805.646.702 1.26Z" clip-rule="evenodd"/><path stroke="#DB836E" stroke-linecap="round" stroke-linejoin="round" stroke-width="1.063" d="m99.961 73.243-.9 1.62-.3 4.38h-2.24"/><path stroke="#5C2552" stroke-linecap="round" stroke-linejoin="round" stroke-width="1.117" d="M100.681 72.882s1.8-.72 2.52.54"/><path stroke="#DB836E" stroke-linecap="round" stroke-linejoin="round" stroke-width="1.117" d="M82.122 72.683s.48-1.12 1.12-.72c.64.4 1.28 1.44.56 2s.16 1.68.16 1.68"/><path stroke="#5C2552" stroke-linecap="round" stroke-linejoin="round" stroke-width="1.117" d="M93.081 71.323s1.84 1.12 4.16.96"/><path stroke="#DB836E" stroke-linecap="round" stroke-linejoin="round" stroke-width="1.063" d="M84.442 79.643s1.786 6.547 9.262 7.954m-.223-7.394s2.24 1.2 4.4 1.2l-4.4-1.2Zm.96 2.56s.96.4 1.52.32l-1.52-.32Z"/><path stroke="#E4EBF7" stroke-linecap="round" stroke-linejoin="round" stroke-width="1.136" d="M96.303 91.262s-1.068 2.821-8.298 2.105c-7.23-.717-10.29-5.044-10.29-5.044"/><path fill="#fff" fill-rule="evenodd" d="M78.881 87.077s6.526 4.972 16.47 2.486c0 0 9.577 1.02 11.536 5.322 5.36 11.77.543 36.835 0 39.962 3.496 4.055-.466 8.483-.466 8.483-15.624-3.548-35.81-.6-35.81-.6-4.849-3.546-1.223-9.044-1.223-9.044l-6.253-23.767c-2.485-15.227.833-19.803 3.549-20.743 3.03-1.05 8.04-1.282 8.04-1.282.496-.058 1.08-.076 1.37-.233 2.36-1.282 2.787-.583 2.787-.583" clip-rule="evenodd"/><path fill="#FFC6A0" fill-rule="evenodd" d="M66.583 89.41s-6.875.464-7.59 8.155c-.466 8.857 3.03 10.954 3.03 10.954s6.075 22.102 16.796 22.957c8.39-2.176 4.758-6.702 4.661-11.42-.233-11.304-7.108-16.897-7.108-16.897s-4.212-13.75-9.789-13.75Z" clip-rule="evenodd"/><path fill="#FFC6A0" fill-rule="evenodd" d="M72.47 123.824s.856 11.264 9.829 6.486c4.765-2.536 7.58-13.828 9.789-22.568 1.456-5.768 2.58-12.197 2.58-12.197l-4.973-1.71s-2.408 5.517-7.77 12.276c-4.334 5.467-9.143 11.11-9.454 17.713Z" clip-rule="evenodd"/><path stroke="#E4EBF7" stroke-linecap="round" stroke-linejoin="round" stroke-width="1.085" d="M109.218 104.79s1.747 2.724-2.331 30.535c2.376 2.216 1.053 6.012-.233 7.51"/><path fill="#FFC6A0" fill-rule="evenodd" d="M124.017 131.126s-.427 2.732-11.77 1.981c-15.187-1.006-25.326-3.25-25.326-3.25l.933-5.8s.723.215 9.71-.068c11.887-.373 18.714-6.07 24.964-1.022 4.039 3.263 1.489 8.16 1.489 8.16" clip-rule="evenodd"/><path fill="#fff" fill-rule="evenodd" d="M70.995 90.573s-5.593-4.739-11.054 2.68c-3.318 7.223.517 15.284 2.664 19.578-.31 3.729 2.33 4.311 2.33 4.311s.108.895 1.516 2.68c4.078-7.03 6.72-9.166 13.711-12.546-.328-.656-1.877-3.265-1.825-3.767.175-1.69-1.282-2.623-1.282-2.623s-.286-.156-1.165-2.738c-.788-2.313-2.036-5.177-4.895-7.575Z" clip-rule="evenodd"/><path fill="#CBD1D1" fill-rule="evenodd" d="M90.987 287.626s4.855 2.308 8.313 1.155c3.188-1.063 5.12.755 8.002 1.331 2.881.577 7.769 1.243 13.207-1.424-.117-6.228-7.786-4.499-13.518-7.588-2.895-1.56-4.276-5.336-4.066-9.944H92.299s-1.573 11.89-1.312 16.47Z" clip-rule="evenodd"/><path fill="#2B0849" fill-rule="evenodd" d="M90.962 287.432s2.745 1.437 7.639.738c3.456-.494 3.223.66 7.418 1.282 4.195.621 13.092-.194 14.334-1.126.466 1.242-.388 2.33-.388 2.33s-1.709.682-5.438.932c-2.295.154-8.098.276-10.14-.621-2.02-1.554-4.894-1.515-6.06-.234-4.427 1.075-7.184-.31-7.184-.31l-.181-2.991Z" clip-rule="evenodd"/><path fill="#A4AABA" fill-rule="evenodd" d="M99.184 271.856h3.496s-.117 7.574 5.127 9.671c-5.244.7-9.672-2.602-8.623-9.671Z" clip-rule="evenodd"/><path fill="#CBD1D1" fill-rule="evenodd" d="M45.18 271.645s-2.208 7.774-4.702 12.899c-1.884 3.874-4.428 7.854 5.729 7.854 6.97 0 9.385-.503 7.782-6.917-1.604-6.415.279-13.836.279-13.836H45.18Z" clip-rule="evenodd"/><path fill="#2B0849" fill-rule="evenodd" d="M38.821 289.876s2.198 1.225 6.954 1.225c6.376 0 8.646-1.73 8.646-1.73s.63 1.168-.649 2.27c-1.04.897-3.77 1.668-7.745 1.621-4.347-.05-6.115-.593-7.062-1.224-.864-.577-.72-1.657-.144-2.162Z" clip-rule="evenodd"/><path fill="#A4AABA" fill-rule="evenodd" d="M46.099 273.64s.035 1.592-.33 3.07c-.364 1.49-1.13 3.255-1.183 4.34-.061 1.206 4.755 1.657 5.403.036.65-1.622 1.357-6.737 2.006-7.602.648-.865-5.14-2.222-5.896.156Z" clip-rule="evenodd"/><path fill="#7BB2F9" fill-rule="evenodd" d="m90.23 277.169 13.9.095s1.349-56.643 1.925-66.909c.576-10.267 3.923-45.052 1.042-65.585l-13.037-.669-23.737.81s-.452 4.12-1.243 10.365c-.065.515-.708.874-.777 1.417-.078.608.439 1.407.332 2.044-2.455 14.627-5.797 32.736-8.256 46.837-.121.693-1.282 1.048-1.515 2.796-.042.314.22 1.584.116 1.865-7.14 19.473-12.202 52.601-15.66 67.19l15.176-.015s2.282-10.145 4.185-18.871c2.922-13.389 24.012-88.32 24.012-88.32l3.133-.954-.158 48.568s-.233 1.282.35 2.098c.583.815-.581 1.167-.408 2.331l.408 1.864s-.466 7.458-.932 12.352c-.467 4.895 1.145 40.69 1.145 40.69" clip-rule="evenodd"/><path stroke="#648BD8" stroke-linecap="round" stroke-linejoin="round" stroke-width="1.085" d="M96.779 222.133s2.88-1.152 6.34-4.034m-37.794.381c1.197.099 4.195-2.097 7.225-5.127l-7.225 5.127Z"/><path stroke="#648BD8" stroke-linecap="round" stroke-linejoin="round" stroke-width="1.032" d="M97.728 218.972s2.882-1.153 6.34-4.034"/><path stroke="#648BD8" stroke-linecap="round" stroke-linejoin="round" stroke-width="1.085" d="M44.997 273.326h13.828m5.102-51.583s2.724-.614 6.759-3.496l-6.76 3.496Zm11.73-75.978c-.28 3.226.311 8.856-4.505 9.478l4.506-9.478Zm18.28-1.822s.115 14.557-1.344 15.65c-2.305 1.73-3.107 2.02-3.107 2.02l4.45-17.67Zm-3.985.579s.269 13.144-1.01 25.088l1.01-25.088Zm-5.672 25.787s6.81-1.051 9.116-1.051l-9.116 1.051Zm-37.5 99.335-.891 4.538.892-4.538Zm.912-6.756-.815 4.157.815-4.157Zm15.788-60.786c-.33 1.618-.102 1.904-.45 3.438 0 0-2.755 1.903-2.29 3.923.467 2.02-.31 3.424-4.504 17.252-1.762 5.807-4.233 18.922-6.165 28.278-.03.144-.521 2.646-1.14 5.8l14.549-58.691Zm1.433-8.367c-.295 1.658-.6 3.31-.917 4.938l.917-4.938Zm7.172-47.349-1.244 10.877s-1.14.155-.52 2.33c.118 1.399-2.777 16.39-5.381 31.615l7.145-44.822Z"/><path fill="#192064" fill-rule="evenodd" d="M106.935 141.716c-3.028-.489-18.825-2.744-36.219.2a.623.623 0 0 0-.518.644c.063 1.307.044 2.343.015 2.995a.616.616 0 0 0 .716.636c3.303-.534 17.037-2.412 35.664-.266.347.04.66-.214.692-.56a41.06 41.06 0 0 0 .17-3.029.614.614 0 0 0-.52-.62Z" clip-rule="evenodd"/><path fill="#fff" fill-rule="evenodd" d="m97.153 144.863.003-5.102a.842.842 0 0 0-.809-.847 113.913 113.913 0 0 0-8.14-.014.85.85 0 0 0-.82.847l-.004 5.097c0 .476.388.857.864.845 2.478-.064 5.166-.067 8.03.017a.837.837 0 0 0 .616-.237.835.835 0 0 0 .26-.606Z" clip-rule="evenodd"/><path fill="#192064" fill-rule="evenodd" d="m95.994 143.895.002-3.195a.666.666 0 0 0-.643-.672 99.425 99.425 0 0 0-6.094-.01.68.68 0 0 0-.654.672l-.002 3.192c0 .376.305.677.68.669 1.859-.042 3.874-.043 6.02.012.376.01.69-.291.691-.668Z" clip-rule="evenodd"/><path stroke="#648BD8" stroke-linecap="round" stroke-linejoin="round" stroke-width="1.085" d="m91.195 170.003.932 46.38s.7 1.631-.233 2.796c-.932 1.166 2.564.7.932 2.33-1.63 1.633.933 1.166 0 3.497-.618 1.546-1.03 21.921-1.138 36.513m-.83 11.602h12.818-12.819Zm1.113-3.761c.006 3.519-.072 5.55 0 6.292v-6.292Zm-.293-6.287c-.009 1.599-.016 2.558-.016 4.505l.016-4.505Z"/><path stroke="#E4EBF7" stroke-linecap="round" stroke-linejoin="round" stroke-width="1.085" d="M78.353 89.64s7.69 6.138 16.547 2.72m-20.41 5.904 2.215 4.312s2.098.816 1.865 2.68l.816 2.214-4.895-9.206Zm-9.438 17.946c.233-.932 2.176-7.147 12.585-10.488L65.052 116.21Z"/><path fill="#FFC6A0" fill-rule="evenodd" d="M92.729 86.553s5.476-.816 7.574-4.545c1.297-.345.72 2.212-.33 3.671-.7.971-1.01 1.554-1.01 1.554s.194.31.155.816c-.053.697-.175.653-.272 1.048-.081.335.108.657 0 1.05-.046.17-.198.5-.382.877-.12.25-.072.687-.2.948-.231.47-1.562 1.87-2.622 2.855-3.826 3.554-5.018 1.644-6.001-.408-.894-1.865-.661-5.127-.874-6.875-.35-2.914-2.622-3.03-1.923-4.429.343-.685 2.87.69 3.263 1.748.757 2.04 2.952 1.807 2.622 1.69Z" clip-rule="evenodd"/><path stroke="#DB836E" stroke-linecap="round" stroke-linejoin="round" stroke-width=".774" d="M100.555 82.028c-.465.077-.35.272-.97 1.243-.622.971-4.817 2.932-6.39 3.224-2.589.48-2.278-1.56-4.254-2.855-1.69-1.107-3.562-.638-1.398 1.398.99.932.932 1.107 1.398 3.205.335 1.506-.64 3.67.7 5.593"/><path stroke="#E59788" stroke-linecap="round" stroke-linejoin="round" stroke-width=".774" d="M80.298 108.272c-2.1 2.926-4.266 6.175-5.557 8.762"/><path fill="#FFC6A0" fill-rule="evenodd" d="M88.475 124.367s-2.098-1.942-5.127-2.719c-3.03-.777-3.574-.155-5.516.078-1.942.233-3.885-.932-3.652.7.233 1.63 5.05 1.01 5.206 2.097.155 1.087-6.37 2.796-8.313 2.175-.777.777.466 1.864 2.02 2.175.233 1.554 2.253 1.554 2.253 1.554s.7 1.01 2.641 1.088c2.486 1.32 8.934-.7 10.954-1.554 2.02-.855-.466-5.594-.466-5.594Z" clip-rule="evenodd"/><path stroke="#E59788" stroke-linecap="round" stroke-linejoin="round" stroke-width=".774" d="M79.619 107.703s-8.39 2.758-13.168 12.12m7.73 2.602s.66 1.127 3.166 1.418c2.315.27 2.563.583 2.563.583s-2.545 2.894-9.07 2.272l3.34-4.273Zm-1.01 6.448s3.826.097 4.933-.718l-4.933.718Zm2.564 1.476s1.961.136 3.36-.505l-3.36.505Zm2.252 1.166s1.748.019 2.914-.505l-2.914.505Zm-3.904-9.595s-.595-1.032 1.262-.427c1.671.544 2.833.055 5.128.155 1.39.061 3.067-.297 3.982.15 1.606.784 3.632 2.181 3.632 2.181s10.526 1.204 19.033-1.127l-33.037-.932Z"/><path stroke="#E4EBF7" stroke-linecap="round" stroke-linejoin="round" stroke-width="1.085" d="M110.033 112.132s3.38-3.613 7.575-4.662"/><path stroke="#E59788" stroke-linecap="round" stroke-linejoin="round" stroke-width=".774" d="M108.13 122.605s9.697-2.745 11.445-.88"/><path stroke="#BFCDDD" stroke-linecap="round" stroke-linejoin="round" stroke-width="2" d="m133.73 169.638-3.955-3.955m65.585-82.428 3.971-3.886-3.971 3.886Zm-7.439 7.277 3.736-3.655-3.736 3.655Zm4.586-6.726-4.462-4.56 4.462 4.56Zm6.701 6.85-4.133-4.225 4.133 4.225Zm-69.197 72.017 3.718-3.718-3.718 3.718Zm-6.965 6.965 3.498-3.498-3.498 3.498Zm4.27-6.413-4.27-4.27 4.27 4.27Z"/><path fill="#A3B4C6" fill-rule="evenodd" d="M190.911 211.378h-1.604a4.026 4.026 0 0 1-4.011-4.011v-32.088a4.021 4.021 0 0 1 4.01-4.01h1.605a4.02 4.02 0 0 1 4.011 4.01v32.088a4.02 4.02 0 0 1-4.01 4.01" clip-rule="evenodd"/><path fill="#A3B4C6" fill-rule="evenodd" d="M238.579 212.576a4.812 4.812 0 0 1-4.813 4.813H147.13a4.81 4.81 0 0 1-4.813-4.813 4.813 4.813 0 0 1 4.813-4.813h86.636a4.812 4.812 0 0 1 4.813 4.813Zm-83.726-22.881h70.513v-84.617h-70.513v84.617Z" clip-rule="evenodd"/><path fill="#BFCDDD" fill-rule="evenodd" d="M225.683 189.695h-71.148a3.221 3.221 0 0 1-3.208-3.209v-18.967a3.22 3.22 0 0 1 3.208-3.21h71.148a3.218 3.218 0 0 1 3.209 3.21v18.967a3.221 3.221 0 0 1-3.21 3.209h.001Zm0-59.264h-71.148a3.219 3.219 0 0 1-3.208-3.208v-18.968a3.22 3.22 0 0 1 3.208-3.209h71.148a3.218 3.218 0 0 1 3.209 3.21v18.967a3.221 3.221 0 0 1-3.21 3.208" clip-rule="evenodd"/><path fill="#fff" fill-rule="evenodd" d="M160.318 120.145a2.418 2.418 0 0 1-1.734-.688 2.407 2.407 0 1 1 1.734.688Zm7.417 0a2.418 2.418 0 0 1-1.734-.688 2.407 2.407 0 1 1 1.734.688Zm7.417 0a2.418 2.418 0 0 1-1.734-.688 2.407 2.407 0 1 1 1.734.688Zm48.142 0h-22.461a.802.802 0 0 1-.802-.802v-3.208c0-.443.359-.803.802-.803h22.46c.444 0 .803.36.803.803v3.208c0 .443-.36.802-.802.802Z" clip-rule="evenodd"/><path fill="#BFCDDD" fill-rule="evenodd" d="M225.683 160.063h-71.148a3.221 3.221 0 0 1-3.208-3.209v-18.967a3.22 3.22 0 0 1 3.208-3.209h71.148a3.22 3.22 0 0 1 3.209 3.209v18.967a3.217 3.217 0 0 1-3.21 3.209" clip-rule="evenodd"/><path stroke="#7C90A5" stroke-linecap="round" stroke-linejoin="round" stroke-width="1.124" d="M156.325 160.212h6.751m11.134-29.781h49.301-49.301Zm-8.471 0h6.089-6.089Zm-9.032 0h6.75-6.75Zm17.885 29.781h49.3-49.3Zm-8.472 0h6.089-6.089Z"/><path fill="#fff" fill-rule="evenodd" d="M160.318 150.637a2.404 2.404 0 0 1-2.407-2.407 2.41 2.41 0 0 1 2.407-2.407 2.409 2.409 0 0 1 1.702 4.109 2.404 2.404 0 0 1-1.702.705Zm7.417 0a2.404 2.404 0 0 1-2.407-2.407 2.41 2.41 0 0 1 2.407-2.407 2.409 2.409 0 0 1 1.702 4.109 2.404 2.404 0 0 1-1.702.705Zm7.417 0a2.406 2.406 0 0 1-.92-4.631 2.406 2.406 0 0 1 3.328 2.224 2.407 2.407 0 0 1-2.407 2.407h-.001Zm48.142 0h-22.461a.798.798 0 0 1-.802-.802v-3.209c0-.443.359-.802.802-.802h22.46c.444 0 .803.36.803.802v3.209c0 .443-.36.802-.802.802Zm-62.976 28.949a2.4 2.4 0 0 1-1.734-.687 2.418 2.418 0 0 1-.722-1.719 2.414 2.414 0 0 1 .722-1.72 2.41 2.41 0 0 1 4.092 1.72 2.405 2.405 0 0 1-2.358 2.406Zm7.417 0a2.4 2.4 0 0 1-1.734-.687 2.418 2.418 0 0 1-.722-1.719 2.414 2.414 0 0 1 .722-1.72 2.41 2.41 0 0 1 4.092 1.72 2.405 2.405 0 0 1-2.358 2.406Zm7.417 0a2.4 2.4 0 0 1-1.734-.687 2.418 2.418 0 0 1-.722-1.719 2.414 2.414 0 0 1 .722-1.72 2.41 2.41 0 0 1 4.092 1.72 2.405 2.405 0 0 1-2.358 2.406Zm48.142 0h-22.461a.798.798 0 0 1-.802-.802v-3.209c0-.443.359-.802.802-.802h22.46c.444 0 .803.36.803.802v3.209c0 .443-.36.802-.802.802Z" clip-rule="evenodd"/><path fill="#BFCDDD" fill-rule="evenodd" d="M203.795 220.707h-27.372a2.414 2.414 0 0 1-2.406-2.407v-11.448a2.414 2.414 0 0 1 2.406-2.407h27.372a2.414 2.414 0 0 1 2.407 2.407v11.447a2.41 2.41 0 0 1-2.407 2.407" clip-rule="evenodd"/><path stroke="#A3B4C6" stroke-linecap="round" stroke-linejoin="round" stroke-width="1.124" d="M201.805 206.816v11.52m-23.791-11.52v11.52-11.52Z"/><path fill="#5BA02E" fill-rule="evenodd" d="M163.628 267.493a9.421 9.421 0 0 1-9.422-9.422v-14.82a9.426 9.426 0 0 1 9.423-9.326 9.426 9.426 0 0 1 9.422 9.326v14.82a9.421 9.421 0 0 1-9.423 9.422Z" clip-rule="evenodd"/><path fill="#92C110" fill-rule="evenodd" d="M171.975 267.429a9.434 9.434 0 0 1-6.663-2.76 9.415 9.415 0 0 1-2.759-6.663v-3.438a9.426 9.426 0 0 1 9.423-9.326 9.423 9.423 0 0 1 9.422 9.326v3.438a9.424 9.424 0 0 1-9.422 9.423" clip-rule="evenodd"/><path fill="#F2D7AD" fill-rule="evenodd" d="M182.065 293.265h-27.712a3.196 3.196 0 0 1-2.269-.941 3.198 3.198 0 0 1-.94-2.269v-20.666a3.219 3.219 0 0 1 .94-2.27 3.198 3.198 0 0 1 2.269-.94h27.711a3.21 3.21 0 0 1 3.209 3.21v20.668a3.209 3.209 0 0 1-3.209 3.209" clip-rule="evenodd"/></symbol></svg>